<?xml version="1.0" encoding="UTF-8"?>
<!-- Generated by Pixelmator Pro 3.4.3 -->
<svg width="260" height="104" viewBox="0 0 260 104" xmlns="http://www.w3.org/2000/svg">
    <g id="Group">
        <path id="Path" fill="#ffffff" stroke="none" visibility="hidden" d="M 1 23.300003 L 14.1 23.300003 C 19.9 23.300003 23.799999 26.800003 23.799999 31.800003 C 23.799999 35.599998 21.5 38.5 17.9 39.699997 L 24.299999 52.200001 L 19.5 52.200001 L 13.5 40.400002 L 5.3 40.400002 L 5.3 52.200001 L 1 52.200001 L 1 23.300003 Z M 13.7 36.699997 C 17.1 36.699997 19.4 34.800003 19.4 31.900002 C 19.4 29 17.1 27.099998 13.7 27.099998 L 5.3 27.099998 L 5.3 36.699997 L 13.7 36.699997 Z M 25.5 41.700001 C 25.5 35.599998 30.1 30.900002 36 30.900002 C 41.900002 30.900002 46.200001 35.599998 46.200001 41.900002 L 46.200001 43.100002 L 29.6 43.100002 C 30.200001 46.600002 33 49.100002 36.700001 49.100002 C 38.799999 49.100002 40.700001 48.400002 42 47.200001 L 44.599998 49.800003 C 42.099998 51.700001 39.599998 52.600002 36.5 52.600002 C 30.299999 52.5 25.5 47.800003 25.5 41.700001 Z M 42.099998 39.900002 C 41.5 36.699997 39 34.300003 36 34.300003 C 32.900002 34.300003 30.299999 36.599998 29.700001 39.900002 L 42.099998 39.900002 Z M 49.200001 41.700001 C 49.200001 35.599998 53.900002 30.900002 59.900002 30.900002 C 62.200001 30.900002 64.400002 31.599998 66.199997 33 L 66.199997 23.300003 L 70.300003 22.5 L 70.300003 52.200001 L 66.199997 52.200001 L 66.199997 50.200001 C 64.5 51.700001 62.200001 52.600002 59.799999 52.600002 C 53.799999 52.5 49.200001 47.800003 49.200001 41.700001 Z M 66.199997 46.400002 L 66.199997 36.900002 C 64.800003 35.300003 62.700001 34.400002 60.299999 34.400002 C 56.299999 34.400002 53.200001 37.5 53.200001 41.600002 C 53.200001 45.700001 56.299999 48.900002 60.299999 48.900002 C 62.700001 48.900002 64.800003 48 66.199997 46.400002 Z M 84.300003 23.300003 L 88.599998 23.300003 L 88.599998 35.699997 L 104 35.699997 L 104 23.300003 L 108.300003 23.300003 L 108.300003 52.200001 L 104 52.200001 L 104 39.599998 L 88.599998 39.599998 L 88.599998 52.200001 L 84.300003 52.200001 L 84.300003 23.300003 Z M 112.199997 46.200001 C 112.199997 42.200001 115.400002 39.800003 120.699997 39.800003 C 122.699997 39.800003 124.699997 40.200001 126.400002 41 L 126.400002 38.800003 C 126.400002 35.800003 124.599998 34.300003 121.300003 34.300003 C 119.400002 34.300003 117.400002 34.800003 114.800003 36.099998 L 113.300003 33 C 116.5 31.5 119.199997 30.900002 121.900002 30.900002 C 127.400002 30.900002 130.5 33.599998 130.5 38.400002 L 130.5 52.300003 L 126.5 52.300003 L 126.5 50.5 C 124.599998 52 122.5 52.700001 120 52.700001 C 115.400002 52.5 112.199997 49.900002 112.199997 46.200001 Z M 120.900002 49.5 C 123.099998 49.5 124.900002 48.900002 126.5 47.5 L 126.5 43.900002 C 124.900002 43 123.199997 42.600002 121.099998 42.600002 C 118.099998 42.600002 116.199997 44 116.199997 46.100002 C 116.199997 48.200001 118.099998 49.5 120.900002 49.5 Z M 137.300003 47 L 137.300003 34.599998 L 132.800003 34.599998 L 132.800003 31.099998 L 137.300003 31.099998 L 137.300003 25.699997 L 141.399994 24.699997 L 141.399994 31.099998 L 147.600006 31.099998 L 147.600006 34.599998 L 141.399994 34.599998 L 141.399994 46 C 141.399994 48.100002 142.300003 49 144.5 49 C 145.699997 49 146.5 48.900002 147.5 48.5 L 147.5 52 C 146.399994 52.400002 144.800003 52.600002 143.600006 52.600002 C 139.5 52.5 137.300003 50.600002 137.300003 47 Z M 0.7 66.599998 L 11.8 66.599998 C 20.4 66.599998 27 72.900002 27 81.099998 C 27 89.300003 20.4 95.5 11.7 95.5 L 0.7 95.5 L 0.7 66.599998 Z M 11.7 90.200005 C 16.799999 90.200005 20.799999 86.200005 20.799999 81.099998 C 20.799999 76 16.799999 71.900002 11.7 71.900002 L 6.6 71.900002 L 6.6 90.099998 L 11.7 90.200005 Z M 29.700001 84.800003 C 29.700001 78.599998 34.599998 73.700005 40.799999 73.700005 C 47 73.700005 51.400002 78.599998 51.400002 85.200005 L 51.400002 86.700005 L 35.5 86.700005 C 36.200001 89.300003 38.599998 91.200005 41.5 91.200005 C 43.400002 91.200005 45.099998 90.599998 46.200001 89.5 L 49.900002 92.900002 C 47.400002 94.900002 44.700001 95.900002 41.299999 95.900002 C 34.799999 95.900002 29.700001 91 29.700001 84.800003 Z M 45.900002 82.599998 C 45.299999 80 43.200001 78.300003 40.700001 78.300003 C 38.200001 78.300003 36.099998 80 35.5 82.599998 L 45.900002 82.599998 Z M 52.099998 74 L 58.200001 74 L 64.099998 88.300003 L 70 74 L 76 74 L 66.800003 95.5 L 61.299999 95.5 L 52.099998 74 Z M 76.599998 84.800003 C 76.599998 78.599998 81.5 73.700005 87.699997 73.700005 C 93.900002 73.700005 98.300003 78.599998 98.300003 85.200005 L 98.300003 86.700005 L 82.400002 86.700005 C 83.099998 89.300003 85.5 91.200005 88.400002 91.200005 C 90.300003 91.200005 92 90.599998 93.099998 89.5 L 96.800003 92.900002 C 94.199997 94.900002 91.599998 95.900002 88.099998 95.900002 C 81.599998 95.900002 76.599998 91 76.599998 84.800003 Z M 92.699997 82.599998 C 92.099998 80 90 78.300003 87.5 78.300003 C 85 78.300003 82.900002 80 82.300003 82.599998 L 92.699997 82.599998 Z M 101.800003 66.599998 L 107.5 65.700005 L 107.5 95.5 L 101.800003 95.5 L 101.800003 66.599998 Z M 110.800003 84.800003 C 110.800003 78.5 115.800003 73.599998 122.300003 73.599998 C 128.699997 73.599998 133.800003 78.5 133.800003 84.800003 C 133.800003 91.099998 128.800003 95.900002 122.300003 95.900002 C 115.900002 95.900002 110.800003 91 110.800003 84.800003 Z M 128.300003 84.800003 C 128.300003 81.300003 125.699997 78.5 122.300003 78.5 C 118.900002 78.5 116.400002 81.300003 116.400002 84.800003 C 116.400002 88.300003 119 91 122.300003 91 C 125.599998 91 128.300003 88.300003 128.300003 84.800003 Z M 137.199997 74 L 142.800003 74 L 142.800003 75.800003 C 144.5 74.400002 146.600006 73.700005 148.899994 73.700005 C 155 73.700005 159.800003 78.599998 159.800003 84.800003 C 159.800003 91 154.899994 95.800003 148.699997 95.800003 C 146.600006 95.800003 144.5 95.200005 142.800003 94.099998 L 142.800003 103.900002 L 137.100006 103.900002 L 137.199997 74 Z M 154.300003 84.800003 C 154.300003 81.300003 151.5 78.599998 148 78.599998 C 145.899994 78.599998 144.100006 79.300003 142.899994 80.700005 L 142.899994 89.099998 C 144.100006 90.400002 146 91.099998 148 91.099998 C 151.600006 91 154.300003 88.300003 154.300003 84.800003 Z M 162.300003 84.800003 C 162.300003 78.599998 167.199997 73.700005 173.399994 73.700005 C 179.600006 73.700005 184 78.599998 184 85.200005 L 184 86.700005 L 168.100006 86.700005 C 168.800003 89.300003 171.199997 91.200005 174.100006 91.200005 C 176 91.200005 177.699997 90.599998 178.800003 89.5 L 182.5 92.900002 C 179.899994 95 177.199997 96 173.800003 96 C 167.399994 95.900002 162.300003 91 162.300003 84.800003 Z M 178.5 82.599998 C 177.899994 80 175.800003 78.300003 173.300003 78.300003 C 170.800003 78.300003 168.699997 80 168.100006 82.599998 L 178.5 82.599998 Z M 187.5 74 L 193.199997 74 L 193.199997 76.400002 C 194.600006 74.5 196.5 73.5 198.899994 73.5 C 200.100006 73.5 200.699997 73.700005 201.300003 74 L 201.300003 78.900002 C 200.5 78.5 199.399994 78.300003 198.399994 78.300003 C 196.199997 78.300003 194.300003 79.5 193.199997 81.5 L 193.199997 95.400002 L 187.5 95.400002 L 187.5 74 Z"/>
        <text id="Red-Hat-One" xml:space="preserve"><tspan x="36" y="42" font-family="Arial" font-size="36" font-weight="700" fill="#ffffff" xml:space="preserve">Red Hat</tspan><tspan x="36" y="84" font-family="Arial" font-size="36" font-weight="700" fill="#ffffff" xml:space="preserve">One</tspan></text>
        <text id="Text" xml:space="preserve" x="81" y="156" font-family="Arial" font-size="24" font-weight="700" fill="#000000">Text</text>
    </g>
    <path id="path1" fill="#ee0000" stroke="none" visibility="hidden" d="M 114.900002 13.099998 C 114.599998 12.900002 114 12.5 113.199997 12.599998 C 112.400002 12.599998 111.599998 13 111.199997 13.699997 C 111.099998 13.800003 111.099998 13.900002 111 14 C 110.5 14.699997 110.400002 15.5 110.599998 16.199997 C 110.699997 16.5 110.800003 16.800003 110.900002 17 C 111 17.199997 111.199997 17.400002 111.400002 17.5 C 111.5 17.599998 111.599998 17.599998 111.599998 17.699997 C 111.599998 17.699997 111.699997 17.800003 111.800003 17.800003 C 112 17.900002 112.099998 18 112.300003 18 C 112.5 18.099998 112.800003 18.099998 113.099998 18.099998 C 113.5 18.099998 113.800003 18 114.199997 17.800003 C 114.5 17.599998 114.800003 17.400002 115 17.199997 C 115.099998 17.099998 115.199997 16.900002 115.400002 16.800003 C 116.400002 15.300003 115.800003 13.800003 114.900002 13.099998 Z"/>
    <path id="path2" fill="#82c299" stroke="none" visibility="hidden" d="M 153.600006 55.900002 C 152.5 56.600002 151.300003 57.200001 150.100006 57.800003 C 148.899994 58.300003 147.699997 58.800003 146.399994 59.200001 C 145 59.600002 144.199997 61 144.600006 62.400002 C 144.899994 63.5 146 64.300003 147.100006 64.300003 C 147.300003 64.300003 147.600006 64.300003 147.800003 64.200005 C 149.300003 63.800003 150.800003 63.200001 152.199997 62.600002 C 153.600006 62 155 61.200001 156.300003 60.400002 C 157.5 59.600002 157.899994 58 157.100006 56.800003 C 156.399994 55.5 154.800003 55.200001 153.600006 55.900002 Z"/>
    <path id="path3" fill="#ee0000" stroke="none" visibility="hidden" d="M 169.300003 24.400002 C 170 24.400002 170.600006 24.099998 171.100006 23.599998 C 172.100006 22.599998 172.100006 21 171.100006 20 L 165.100006 14 C 164.100006 13 162.5 13 161.5 14 C 160.5 15 160.5 16.599998 161.5 17.599998 L 167.5 23.599998 C 168 24.099998 168.600006 24.400002 169.300003 24.400002 Z M 154.199997 10.300003 C 155 10.300003 155.800003 9.900002 156.300003 9.199997 C 157.100006 8 156.800003 6.400002 155.600006 5.599998 C 150 1.699997 144.199997 -0.099998 137.800003 -0.099998 C 131.399994 -0.099998 125 1.800003 119.599998 5.300003 C 118.400002 6.099998 118.099998 7.699997 118.900002 8.900002 C 119.699997 10.099998 121.300003 10.400002 122.5 9.599998 C 127.099998 6.599998 132.399994 5 137.800003 5 C 143.199997 5 148 6.5 152.800003 9.800003 C 153.199997 10.099998 153.699997 10.300003 154.199997 10.300003 Z"/>
    <path id="path4" fill="#82c299" stroke="none" visibility="hidden" d="M 196.199997 13.699997 L 194.699997 15.199997 C 187.199997 22.800003 179.600006 30.5 172.300003 37.900002 C 169 41.200001 165.699997 44.600002 162.5 47.900002 C 161.5 48.900002 161.5 50.5 162.5 51.5 C 163 52 163.699997 52.200001 164.300003 52.200001 C 164.899994 52.200001 165.600006 51.900002 166.100006 51.400002 C 169.399994 48.100002 172.699997 44.700001 175.899994 41.400002 C 183.199997 34 190.800003 26.300003 198.300003 18.699997 L 199.800003 17.199997 C 200.800003 16.199997 200.800003 14.599998 199.800003 13.599998 C 198.800003 12.699997 197.199997 12.699997 196.199997 13.699997 Z"/>
    <path id="path5" fill="#faaa4f" stroke="none" visibility="hidden" d="M 242.600006 6 C 237 2 230.399994 -0.099998 223.399994 -0.099998 C 216.899994 -0.099998 211.300003 1.699997 205.699997 5.5 C 204.5 6.300003 204.199997 7.900002 205 9.099998 C 205.800003 10.300003 207.399994 10.599998 208.600006 9.800003 C 213.300003 6.599998 218 5.099998 223.399994 5.099998 C 229.300003 5.099998 234.899994 6.900002 239.600006 10.300003 C 240.100006 10.599998 240.600006 10.800003 241.100006 10.800003 C 241.899994 10.800003 242.699997 10.400002 243.199997 9.699997 C 244.100006 8.5 243.800003 6.900002 242.600006 6 Z"/>
    <path id="path6" fill="#ee0000" stroke="none" visibility="hidden" d="M 250.899994 14.5 C 250.100006 13.300003 248.5 13 247.300003 13.800003 C 246.100006 14.599998 245.800003 16.199997 246.600006 17.400002 C 249.699997 22 251.399994 27.400002 251.399994 33.099998 C 251.399994 38.800003 249.800003 44 246.699997 48.600002 C 245.899994 49.800003 246.199997 51.400002 247.399994 52.200001 C 247.800003 52.5 248.300003 52.600002 248.800003 52.600002 C 249.600006 52.600002 250.399994 52.200001 251 51.5 C 254.600006 46.100002 256.5 39.699997 256.5 33.099998 C 256.5 26.5 254.699997 20 250.899994 14.5 Z"/>
    <path id="path7" fill="#4cb6d6" stroke="none" visibility="hidden" d="M 239.100006 56.300003 C 234.5 59.400002 229.100006 61.100002 223.399994 61.100002 C 217.699997 61.100002 212.899994 59.600002 208.399994 56.800003 C 207.199997 56 205.600006 56.400002 204.800003 57.600002 C 204 58.800003 204.399994 60.400002 205.600006 61.200001 C 210.899994 64.599998 217 66.300003 223.300003 66.300003 C 229.899994 66.300003 236.399994 64.300003 241.899994 60.600002 C 243.100006 59.800003 243.399994 58.200001 242.600006 57 C 241.899994 55.800003 240.300003 55.5 239.100006 56.300003 Z M 193.800003 42.600002 C 192.800003 41.600002 191.199997 41.5 190.199997 42.5 C 189.199997 43.5 189.100006 45.100002 190.100006 46.100002 L 195.800003 52 C 196.300003 52.5 197 52.800003 197.699997 52.800003 C 198.300003 52.800003 199 52.600002 199.5 52.100002 C 200.5 51.100002 200.600006 49.5 199.600006 48.5 L 193.800003 42.600002 Z"/>
</svg>
